<?xml version="1.0" encoding="UTF-8"?> <!-- Generator: Adobe Illustrator 24.3.0, SVG Export Plug-In . SVG Version: 6.00 Build 0) --> <svg xmlns="http://www.w3.org/2000/svg" xmlns:xlink="http://www.w3.org/1999/xlink" version="1.1" id="Layer_1" x="0px" y="0px" viewBox="0 0 350 200" style="enable-background:new 0 0 350 200;" xml:space="preserve"> <style type="text/css"> .st0{fill:none;stroke:#047FB8;stroke-width:2;stroke-linecap:round;stroke-miterlimit:10;stroke-dasharray:4,6;} .st1{fill:#047FB8;} .st2{fill:#FFE03C;} .st3{fill:#D10066;} .st4{fill:#FFFFFF;} .st5{fill:#1B345A;} .st6{fill:#60CAE9;} .st7{fill:#A7A9AC;} .st8{fill:#68B842;} .st9{fill:#CCCCCC;} .st10{fill:#1AD1C2;} .st11{fill:#E2E2E2;} .st12{fill:none;stroke:#047FB8;stroke-width:2;stroke-linecap:round;stroke-miterlimit:10;} .st13{fill:none;stroke:#047FB8;stroke-width:2;stroke-linecap:round;stroke-miterlimit:10;stroke-dasharray:3.7781,5.6671;} .st14{fill:#19345A;} .st15{fill:#60CAE8;} .st16{fill:#68B745;} .st17{fill:#F1F2F2;} .st18{fill:none;stroke:#1B345A;stroke-width:5;stroke-linecap:round;stroke-miterlimit:10;} .st19{fill:#60CBEA;} .st20{fill:#047FB9;} .st21{fill:#FDDF3F;} .st22{fill:#46C0B9;} .st23{fill:#D21B68;} .st24{clip-path:url(#SVGID_2_);} .st25{clip-path:url(#SVGID_4_);} .st26{clip-path:url(#SVGID_6_);} .st27{fill:#4D4D4F;} .st28{fill:#DCDDDE;} .st29{fill:#A6A8AB;} .st30{fill:#60C9E8;} .st31{fill:none;stroke:#1B345A;stroke-width:4;stroke-linecap:round;stroke-miterlimit:10;} .st32{fill:#1A345A;} .st33{fill:#46BFB8;} .st34{fill:#D11A68;} .st35{clip-path:url(#SVGID_8_);fill:#FFFFFF;} .st36{clip-path:url(#SVGID_8_);fill:#61C8E7;} .st37{clip-path:url(#SVGID_8_);fill:#68B842;} .st38{clip-path:url(#SVGID_8_);fill:#FFE03C;} .st39{clip-path:url(#SVGID_8_);fill:#1C3359;} .st40{opacity:0;fill:#FFFFFF;} .st41{fill:#62CAE8;} .st42{fill:none;stroke:#62CAE8;stroke-width:4;stroke-linecap:round;stroke-linejoin:round;} .st43{fill:none;stroke:#1A345A;stroke-width:4;stroke-linecap:round;stroke-linejoin:round;} .st44{fill:#68B645;} .st45{fill:none;stroke:#1A345A;stroke-width:4;stroke-miterlimit:10;} .st46{clip-path:url(#SVGID_10_);} .st47{fill:none;stroke:#1A345A;stroke-width:3;stroke-miterlimit:10;} .st48{clip-path:url(#SVGID_12_);} .st49{clip-path:url(#SVGID_14_);} .st50{fill:#A7A8AB;} .st51{fill:none;stroke:#FFE03C;stroke-width:4;stroke-linecap:round;stroke-linejoin:round;} .st52{fill:none;stroke:#D21B68;stroke-width:4;stroke-linecap:round;stroke-linejoin:round;} .st53{fill:none;stroke:#46C0B9;stroke-width:4;stroke-linecap:round;stroke-linejoin:round;} .st54{fill:none;stroke:#1B345A;stroke-width:4;stroke-linecap:round;stroke-linejoin:round;} .st55{clip-path:url(#SVGID_16_);} .st56{clip-path:url(#SVGID_18_);} .st57{fill:#FFFFFF;stroke:#E2E2E2;stroke-miterlimit:10;} .st58{fill:#036789;} .st59{fill:none;} .st60{fill:#D11B69;} .st61{fill:#027FB8;} .st62{fill:none;stroke:#60CBEA;stroke-width:4;stroke-linecap:round;stroke-linejoin:round;} .st63{fill:none;stroke:#1B345A;stroke-width:4;stroke-miterlimit:10;} .st64{fill:#FFFFFF;fill-opacity:0;} .st65{clip-path:url(#SVGID_20_);fill:#FFFFFF;} .st66{clip-path:url(#SVGID_20_);fill:#61C8E7;} .st67{clip-path:url(#SVGID_20_);fill:#68B842;} .st68{clip-path:url(#SVGID_20_);fill:#FFE03C;} .st69{clip-path:url(#SVGID_20_);fill:#1C3359;} .st70{fill:#D21B68;stroke:#1B345A;stroke-width:4;stroke-linecap:round;stroke-linejoin:round;} .st71{fill:#FFFFFF;stroke:#1B345A;stroke-width:4;stroke-linecap:round;stroke-linejoin:round;} .st72{opacity:0;} .st73{clip-path:url(#SVGID_22_);fill:#FFFFFF;} .st74{clip-path:url(#SVGID_22_);fill:#61C8E7;} .st75{clip-path:url(#SVGID_22_);fill:#68B842;} .st76{clip-path:url(#SVGID_22_);fill:#FFE03C;} .st77{clip-path:url(#SVGID_22_);fill:#1C3359;} .st78{clip-path:url(#SVGID_24_);fill:#FFFFFF;} .st79{clip-path:url(#SVGID_24_);fill:#61C8E7;} .st80{clip-path:url(#SVGID_24_);fill:#68B842;} .st81{clip-path:url(#SVGID_24_);fill:#FFE03C;} .st82{clip-path:url(#SVGID_24_);fill:#1C3359;} .st83{clip-path:url(#SVGID_26_);} .st84{clip-path:url(#SVGID_28_);} .st85{clip-path:url(#SVGID_30_);} .st86{clip-path:url(#SVGID_32_);} .st87{clip-path:url(#SVGID_34_);} .st88{clip-path:url(#SVGID_36_);} .st89{fill:#60CAE8;stroke:#19345A;stroke-width:4;stroke-miterlimit:10;} .st90{fill:#4E4D50;} .st91{opacity:0.5;fill:#4E4D50;} .st92{opacity:0.2;fill:#60CAE8;} .st93{fill:#DCDDDD;} .st94{fill:#93D0DF;} .st95{clip-path:url(#SVGID_38_);} .st96{clip-path:url(#SVGID_40_);} .st97{clip-path:url(#SVGID_42_);} </style> <g> <circle class="st4" cx="15.8" cy="146.5" r="4"></circle> </g> <g> <rect x="11.3" y="23.8" class="st6" width="81.2" height="51.1"></rect> <path class="st59" d="M12.3,71.9c0,1.7,1.4,3,3,3h73.3c1.7,0,3-1.4,3-3V24.7H12.3V71.9z M86.4,67.1H58.6c-0.7,0-1.2-0.6-1.2-1.2 c0-0.7,0.6-1.2,1.2-1.2h27.8c0.7,0,1.2,0.6,1.2,1.2C87.7,66.6,87.1,67.1,86.4,67.1z M86.4,61.7H58.6c-0.7,0-1.2-0.6-1.2-1.2 s0.6-1.2,1.2-1.2h27.8c0.7,0,1.2,0.6,1.2,1.2S87.1,61.7,86.4,61.7z M57.4,55c0-0.7,0.6-1.2,1.2-1.2h16.5c0.7,0,1.2,0.6,1.2,1.2 s-0.6,1.2-1.2,1.2H58.6C58,56.2,57.4,55.7,57.4,55z M86.4,56.2h-6.3c-0.7,0-1.2-0.6-1.2-1.2s0.6-1.2,1.2-1.2h6.3 c0.7,0,1.2,0.6,1.2,1.2S87.1,56.2,86.4,56.2z M68.9,32c2.3-1,4.9-1.1,7.4,0c5.3-2.3,11.4,0.8,12.6,6.4c1.7,7.4-5.9,13.4-12.6,10.4 c-2.3,1-4.9,1.1-7.4,0c-5.3,2.3-11.4-0.8-12.6-6.4C54.6,35.1,62,29,68.9,32z M34.7,29.1c11.1,0,20.1,9,20.1,20.1 c0,16.2-18.1,25.5-31.2,16.8c-5.6-3.7-9-10-9-16.8C14.6,38.1,23.6,29.1,34.7,29.1z"></path> <path class="st59" d="M66.2,47c3.8-0.6,6.4-4.3,5.5-8.1c-1.3-5.8-9-7.1-12.2-2.1C56.4,41.7,60.6,47.9,66.2,47z M64,35.4v-0.1 c0-0.9,1-1.4,1.7-1c0.7,0.4,0.6,1.1,0.6,1.1c0.5,0.1,0.9,0.3,1.2,0.5c1.5,1.1,0.6,2.5-0.3,2.5c-0.9,0-0.8-1-2-1c-0.7,0-1,0.3-1,0.9 c0,0.7,0.4,0.9,1.4,1.3c1.5,0.5,2.5,1.2,2.5,2.9c0,1.4-0.7,2.3-1.8,2.7c0,0.1,0.1,0.9-0.6,1.3c-0.8,0.4-1.7-0.1-1.7-1v-0.1 c-1.5-0.2-1.8-0.9-1.8-1.4c0-0.7,0.7-1.5,1.6-1.1c0.3,0.1,0.5,0.3,1.2,0.3c0.3,0,0.6-0.1,0.7-0.1c0.1-0.1,0.2-0.2,0.2-0.5 c0-0.4-0.1-0.5-1.2-0.9l-0.6-0.2l0,0C62.7,41,62,40,62,38.4C62,36.9,62.7,35.8,64,35.4z"></path> <path class="st59" d="M71.5,47c4.7,0.7,8.6-3.5,7.5-8.1c-0.8-3.4-4-5.7-7.5-5.1C75.3,37.4,75.3,43.4,71.5,47z"></path> <path class="st59" d="M78.9,47c4.7,0.7,8.6-3.5,7.5-8.1c-0.8-3.5-4.1-5.7-7.5-5.1C82.6,37.3,82.7,43.3,78.9,47z"></path> <path class="st9" d="M39.7,45.6c-0.5,0.2-1.1,0.4-1.8,0.5c-0.8,0.1-1.6-0.4-1.8-1.2c-2.4,1.5-5.7,2-7.7,2.3v5.5 c0,2.9,2.4,5.3,5.3,5.3h1.7c2.9,0,5.3-2.4,5.3-5.3v-6.1C40.3,46.4,39.9,46.1,39.7,45.6z"></path> <path class="st7" d="M45.2,54.3l-2-7.1v5.4c0,2.9-1.6,5.4-4,6.8c1.7-0.3,3.1-0.8,4.4-1.4C45,57.3,45.6,55.8,45.2,54.3z"></path> <path class="st7" d="M42.5,38.4c0,0-1-0.1-1.3,0.8c-0.3,0.8-1.1,1.1-1.8,0.7c-0.2-0.1-0.3-0.3-0.4-0.4c-0.7-1.2-2-1.9-3.4-1.9h-6 c-2.2,0-3.9,1.6-3.9,3.6v3.5c0.7,0.6,8.2-0.2,10.5-2.9c0.3-0.3,0.7-0.5,1.1-0.4c0.7,0.1,0.9,0.6,1.1,1.1c0.1,0.3,0.2,0.6,0.2,1.1 c0.8-0.4,0.4-0.6,1-1.1c0.5-0.3,1.2-0.3,1.6,0.2c0.1,0.1,0.4,0.5,0.6,1.2c2.4-1.3,1.7-3.7,1.8-4.3C43.7,38.9,43.1,38.4,42.5,38.4z"></path> <path class="st7" d="M25.7,58c1.2,0.6,2.5,1,4,1.3c-2.3-1.4-3.8-3.9-3.8-6.7v-4.4l-1.8,6.1C23.7,55.8,24.4,57.3,25.7,58z"></path> <path class="st10" d="M24,63.2c0.7-0.9,1.5-1.6,2.4-2.2c-0.6-0.2-1.2-0.5-1.7-0.8c-2.4-1.2-3.6-4-2.9-6.6l2.1-7.3 c-0.5-0.5-0.7-1.1-0.7-1.7v-3.5c0-3.3,2.9-6.1,6.4-6.1h6c1.7,0,3.3,0.6,4.4,1.7c0.7-0.5,1.5-0.8,2.4-0.8h0.1c2,0,3.7,1.6,3.7,3.5 c-0.1,0.8,0.4,2.9-1.3,5l2.7,9.3c0.8,2.6-0.4,5.4-2.9,6.6c-0.6,0.3-1.1,0.5-1.7,0.8c0.9,0.6,1.7,1.3,2.4,2.2 c4.3-3.3,6.9-8.5,6.9-14c0-9.7-7.9-17.6-17.6-17.6c-9.7,0-17.6,7.9-17.6,17.6C17.1,54.7,19.6,59.8,24,63.2z"></path> <path class="st2" d="M38.9,62C38.9,62,38.9,62,38.9,62C38.9,62,38.9,62,38.9,62c-1.2-0.2-1.7-0.1-7.1-0.1c-2.3,0-4.4,1-5.8,2.7 c5.5,3.1,12,3,17.3,0C42.2,63.2,40.7,62.3,38.9,62z"></path> <path class="st5" d="M88.6,11.6H40.1c-0.7,0-1.2,0.6-1.2,1.2s0.6,1.2,1.2,1.2h48.6c1.7,0,3,1.4,3,3v5H12.3v-5c0-1.7,1.4-3,3-3h19.7 c0.7,0,1.2-0.6,1.2-1.2s-0.6-1.2-1.2-1.2H15.3c-3,0-5.5,2.5-5.5,5.5v54.8c0,3,2.5,5.5,5.5,5.5h73.3c3,0,5.5-2.5,5.5-5.5V17.1 C94.1,14.1,91.7,11.6,88.6,11.6z M91.7,71.9c0,1.7-1.4,3-3,3H15.3c-1.7,0-3-1.4-3-3V24.7h79.3V71.9z"></path> <path class="st5" d="M76.9,19.7c0.7,0,1.2-0.6,1.2-1.2c0-0.7-0.6-1.2-1.2-1.2H64.2c-0.7,0-1.2,0.6-1.2,1.2c0,0.7,0.6,1.2,1.2,1.2 H76.9z"></path> <path class="st5" d="M16.6,18.5c0,0.7,0.6,1.2,1.2,1.2h41.4c0.7,0,1.2-0.6,1.2-1.2c0-0.7-0.6-1.2-1.2-1.2H17.9 C17.2,17.3,16.6,17.8,16.6,18.5z"></path> <path class="st5" d="M83.6,21c0.2,0.3,0.6,0.4,0.9,0.4c0.3,0,0.6-0.1,0.8-0.3l1.1-1c0.9,0.7,1.2,1.3,1.9,1.3c0.3,0,0.7-0.1,0.9-0.4 c0.5-0.5,0.4-1.3-0.1-1.8l-0.9-0.8l0.9-0.8c0.5-0.5,0.6-1.2,0.1-1.8c-0.5-0.5-1.2-0.6-1.8-0.1l-1.1,1l-1.1-1 c-0.5-0.5-1.3-0.4-1.8,0.1c-0.5,0.5-0.4,1.3,0.1,1.8l0.9,0.8l-0.9,0.8C83.2,19.7,83.2,20.5,83.6,21z"></path> <path class="st5" d="M23.6,65.9c13.1,8.7,31.2-0.5,31.2-16.8c0-11.1-9-20.1-20.1-20.1c-11.1,0-20.1,9-20.1,20.1 C14.6,55.9,17.9,62.2,23.6,65.9z M34.8,30.2c10.5,0,19,8.5,19,19c0,10.5-8.5,19-19,19s-19-8.5-19-19C15.8,38.7,24.3,30.2,34.8,30.2 z"></path> <circle class="st2" cx="71.9" cy="40.4" r="7.6"></circle> <circle class="st2" cx="80.1" cy="40.4" r="7.6"></circle> <circle class="st2" cx="65" cy="40" r="7.6"></circle> <path class="st5" d="M34.8,68.2c10.5,0,19-8.5,19-19c0-10.5-8.5-19-19-19s-19,8.5-19,19C15.8,59.7,24.3,68.2,34.8,68.2z M26,64.5 c1.5-1.7,3.6-2.7,5.8-2.7c5.3,0,5.9-0.1,7.1,0.1c0,0,0,0,0,0c0,0,0,0,0,0c1.7,0.3,3.2,1.2,4.4,2.5C38,67.5,31.5,67.6,26,64.5z M41.9,43.8c-0.2-0.7-0.6-1.2-0.6-1.2c-0.4-0.5-1.1-0.6-1.6-0.2c-0.6,0.4-0.2,0.7-1,1.1c0-0.4-0.1-0.8-0.2-1.1 c-0.2-0.5-0.4-1-1.1-1.1c-0.4-0.1-0.8,0.1-1.1,0.4c-2.4,2.7-9.8,3.5-10.5,2.9v-3.5c0-2,1.8-3.6,3.9-3.6h6c1.4,0,2.7,0.7,3.4,1.9 c0.1,0.2,0.3,0.3,0.4,0.4c0.7,0.4,1.5,0.1,1.8-0.7c0.3-0.8,1.3-0.8,1.3-0.8c0.7,0,1.2,0.5,1.2,1.1C43.6,40,44.3,42.5,41.9,43.8z M43.2,52.7v-5.4l2,7.1c0.4,1.5-0.3,3-1.6,3.7c-1.3,0.6-2.7,1.1-4.4,1.4C41.6,58.1,43.2,55.6,43.2,52.7z M35.4,58h-1.7 c-2.9,0-5.3-2.4-5.3-5.3v-5.5c2-0.2,5.3-0.8,7.7-2.3c0.2,0.8,1,1.3,1.8,1.2c0.7-0.1,1.3-0.2,1.8-0.5c0.2,0.5,0.6,0.8,1,0.9v6.1 C40.7,55.6,38.3,58,35.4,58z M25.9,48.2v4.4c0,2.8,1.5,5.3,3.8,6.7c-1.5-0.3-2.8-0.8-4-1.3c-1.4-0.7-2-2.2-1.6-3.7L25.9,48.2z M34.7,31.6c9.7,0,17.6,7.9,17.6,17.6c0,5.5-2.6,10.7-6.9,14c-0.7-0.9-1.5-1.6-2.4-2.2c0.6-0.2,1.2-0.5,1.7-0.8 c2.4-1.2,3.6-4,2.9-6.6l-2.7-9.3c1.7-2.1,1.2-4.2,1.3-5c0-2-1.7-3.5-3.7-3.5h-0.1c-0.9,0-1.7,0.3-2.4,0.8c-1.2-1.1-2.8-1.7-4.4-1.7 h-6c-3.5,0-6.4,2.7-6.4,6.1v3.5c0,0.7,0.3,1.3,0.7,1.7l-2.1,7.3c-0.8,2.6,0.4,5.4,2.9,6.6c0.6,0.3,1.1,0.5,1.7,0.8 c-0.9,0.6-1.7,1.3-2.4,2.2c-4.3-3.3-6.9-8.5-6.9-14C17.1,39.5,25,31.6,34.7,31.6z"></path> <path class="st5" d="M68.9,48.8c2.4,1.1,5.1,1,7.4,0c6.7,3,14.3-3,12.6-10.4c-1.3-5.6-7.3-8.7-12.6-6.4c-2.4-1.1-5.1-1-7.4,0 c-6.8-3-14.3,3.1-12.6,10.4C57.5,48,63.6,51.1,68.9,48.8z M86.4,38.9c1,4.6-2.9,8.8-7.5,8.1c3.8-3.7,3.7-9.7,0-13.2 C82.3,33.2,85.7,35.5,86.4,38.9z M79.1,38.9c1,4.6-2.9,8.8-7.5,8.1c3.8-3.6,3.7-9.6,0-13.2C75,33.2,78.3,35.5,79.1,38.9z M59.5,36.8c3.2-5,10.9-3.7,12.2,2.1c0.9,3.8-1.7,7.5-5.5,8.1C60.6,47.9,56.4,41.7,59.5,36.8z"></path> <path class="st5" d="M64.1,41.5L64.1,41.5l0.6,0.2c1.1,0.4,1.2,0.5,1.2,0.9c0,0.3-0.1,0.4-0.2,0.5c-0.2,0.1-0.4,0.1-0.7,0.1 c-0.6,0-0.9-0.2-1.2-0.3c-0.9-0.4-1.6,0.3-1.6,1.1c0,0.5,0.3,1.1,1.8,1.4v0.1c0,0.9,0.9,1.4,1.7,1c0.7-0.4,0.6-1.2,0.6-1.3 c1.1-0.4,1.8-1.3,1.8-2.7c0-1.7-1-2.4-2.5-2.9c-1-0.4-1.4-0.6-1.4-1.3c0-0.6,0.3-0.9,1-0.9c1.3,0,1.1,1,2,1c0.9,0,1.8-1.4,0.3-2.5 c-0.3-0.2-0.7-0.4-1.2-0.5c0,0,0.1-0.8-0.6-1.1c-0.7-0.4-1.7,0.1-1.7,1v0.1c-1.3,0.4-2,1.5-2,3C62,40,62.7,41,64.1,41.5z"></path> <path class="st5" d="M86.4,53.7h-6.3c-0.7,0-1.2,0.6-1.2,1.2s0.6,1.2,1.2,1.2h6.3c0.7,0,1.2-0.6,1.2-1.2S87.1,53.7,86.4,53.7z"></path> <path class="st5" d="M58.6,56.2h16.5c0.7,0,1.2-0.6,1.2-1.2s-0.6-1.2-1.2-1.2H58.6c-0.7,0-1.2,0.6-1.2,1.2S58,56.2,58.6,56.2z"></path> <path class="st5" d="M86.4,59.2H58.6c-0.7,0-1.2,0.6-1.2,1.2s0.6,1.2,1.2,1.2h27.8c0.7,0,1.2-0.6,1.2-1.2S87.1,59.2,86.4,59.2z"></path> <path class="st5" d="M86.4,64.7H58.6c-0.7,0-1.2,0.6-1.2,1.2c0,0.7,0.6,1.2,1.2,1.2h27.8c0.7,0,1.2-0.6,1.2-1.2 C87.7,65.2,87.1,64.7,86.4,64.7z"></path> </g> <g> <path class="st9" d="M289.4,116.9c0,2.3,1.9,4.2,4.2,4.2h22.6c0.4,0,0.7,0,1.1-0.1c1.8-0.5,3.1-2.1,3.1-4v-4c0-2.2-1.8-4-4-4 c0,0-28.6,0-28.6,0c1,1,1.6,2.4,1.6,4V116.9z"></path> <path class="st9" d="M277.8,153.8h-5.1c-1.6,0-2.9,1.3-2.9,2.9v5.4c0,2.2,1.8,4,4,4c2.4,0,4-1.9,4-4 C277.8,155.2,277.8,153.9,277.8,153.8L277.8,153.8z"></path> <path class="st11" d="M297,160.3v-18.5c0-0.8,0.1-1.5,0.4-2.3h-4.9c-0.5,0-0.9-0.4-0.9-0.9c0-0.5,0.4-0.9,0.9-0.9h5.7 c1.3-2,3.6-3.4,6.2-3.4h11.1v-11.5h-21.9c-3.3,0-6-2.7-6-6v-4c0-3.6-3.7-4-3.9-4c-2.3,0-4.2,1.9-4.2,4.2c0,0.8,0,45.1,0,48.9 c0,1.5-0.6,2.9-1.6,4h21.6C298,164.6,297,162.6,297,160.3z M292.5,125.6H312c0.5,0,0.9,0.4,0.9,0.9c0,0.5-0.4,0.9-0.9,0.9h-19.6 c-0.5,0-0.9-0.4-0.9-0.9C291.6,126,292,125.6,292.5,125.6z M292.5,131.7H312c0.5,0,0.9,0.4,0.9,0.9c0,0.5-0.4,0.9-0.9,0.9h-19.6 c-0.5,0-0.9-0.4-0.9-0.9C291.6,132.1,292,131.7,292.5,131.7z M283.5,125.6h5.4c0.5,0,0.9,0.4,0.9,0.9c0,0.5-0.4,0.9-0.9,0.9h-5.4 c-0.5,0-0.9-0.4-0.9-0.9C282.6,126,283,125.6,283.5,125.6z M283.5,131.7h5.4c0.5,0,0.9,0.4,0.9,0.9c0,0.5-0.4,0.9-0.9,0.9h-5.4 c-0.5,0-0.9-0.4-0.9-0.9C282.6,132.1,283,131.7,283.5,131.7z M283.5,137.8h5.4c0.5,0,0.9,0.4,0.9,0.9c0,0.5-0.4,0.9-0.9,0.9h-5.4 c-0.5,0-0.9-0.4-0.9-0.9C282.6,138.2,283,137.8,283.5,137.8z M293.6,157.8h-10.1c-0.5,0-0.9-0.4-0.9-0.9s0.4-0.9,0.9-0.9h10.1 c0.5,0,0.9,0.4,0.9,0.9S294.1,157.8,293.6,157.8z M293.6,151.8h-10.1c-0.5,0-0.9-0.4-0.9-0.9s0.4-0.9,0.9-0.9h10.1 c0.5,0,0.9,0.4,0.9,0.9S294.1,151.8,293.6,151.8z M293.6,145.7h-10.1c-0.5,0-0.9-0.4-0.9-0.9c0-0.5,0.4-0.9,0.9-0.9h10.1 c0.5,0,0.9,0.4,0.9,0.9C294.5,145.3,294.1,145.7,293.6,145.7z"></path> <path class="st6" d="M327,160.3v-18.5c0-1.7-0.7-3.2-1.9-4.2v26.9C326.3,163.5,327,162,327,160.3z"></path> <path class="st3" d="M322,151.3h-2.1c-0.3,0-0.6,0.3-0.6,0.6v9.5c0,0.4,0.3,0.8,0.8,0.8h1.7c0.4,0,0.8-0.3,0.8-0.8v-9.5 C322.5,151.6,322.3,151.3,322,151.3z"></path> <path class="st2" d="M306.4,151.3h-3.1c0,0-0.1,0-0.1,0.1v3.1c0,0,0,0.1,0.1,0.1h3.1c0,0,0.1,0,0.1-0.1L306.4,151.3 C306.5,151.4,306.4,151.3,306.4,151.3z"></path> <path class="st2" d="M306.4,158.9h-3.1c0,0-0.1,0-0.1,0.1v3.1c0,0,0,0.1,0.1,0.1h3.1c0,0,0.1,0,0.1-0.1L306.4,158.9 C306.5,159,306.4,158.9,306.4,158.9z"></path> <path class="st4" d="M321.3,140h-16.9c-0.7,0-1.2,0.5-1.2,1.2v3.3c0,0.7,0.5,1.2,1.2,1.2h16.9c0.7,0,1.2-0.5,1.2-1.2v-3.3 C322.5,140.5,322,140,321.3,140z"></path> <path class="st2" d="M314.4,151.3h-3.1c0,0-0.1,0-0.1,0.1v3.1c0,0,0,0.1,0.1,0.1h3.1c0,0,0.1,0,0.1-0.1L314.4,151.3 C314.5,151.4,314.5,151.3,314.4,151.3z"></path> <path class="st6" d="M321.4,136.2h-17c-1.5,0-2.9,0.6-3.9,1.6c-1.1,1-1.7,2.5-1.7,4v18.5c0,3.1,2.5,5.6,5.6,5.6h17 c1.4,0,2.8-0.5,3.8-1.4v-26.9C324.1,136.7,322.8,136.2,321.4,136.2z M308.3,162.1c0,1-0.8,1.9-1.9,1.9h-3.1c-1,0-1.9-0.8-1.9-1.9 V159c0-1,0.8-1.9,1.9-1.9h3.1c1,0,1.9,0.8,1.9,1.9V162.1z M308.3,154.5c0,1-0.8,1.9-1.9,1.9h-3.1c-1,0-1.9-0.8-1.9-1.9v-3.1 c0-1,0.8-1.9,1.9-1.9h3.1c1,0,1.9,0.8,1.9,1.9V154.5z M316.3,162.1c0,0.9-0.7,1.7-1.6,1.8c-0.1,0-0.2,0-0.3,0h-3.1 c-1,0-1.9-0.8-1.9-1.9V159c0-1,0.8-1.9,1.9-1.9h3.1c0.4,0,0.8,0.1,1.1,0.3c0.5,0.3,0.8,0.9,0.8,1.5V162.1z M316.3,154.5 c0,0.6-0.3,1.2-0.8,1.5c-0.3,0.2-0.7,0.3-1.1,0.3h-3.1c-1,0-1.9-0.8-1.9-1.9v-3.1c0-1,0.8-1.9,1.9-1.9c2.8,0.1,3.3-0.2,4.1,0.3 c0.5,0.3,0.8,0.9,0.8,1.5V154.5z M324.3,161.4c0,1.4-1.1,2.6-2.6,2.6h-1.7c-1.4,0-2.6-1.1-2.6-2.6v-9.5c0-1.3,1.1-2.3,2.3-2.3h2.1 c1.3,0,2.3,1.1,2.3,2.3V161.4z M321.3,147.5h-16.9c-1.7,0-3-1.3-3-3v-3.3c0-0.6,0.2-1.2,0.5-1.6c0.5-0.8,1.5-1.4,2.5-1.4h16.9 c1.7,0,3,1.3,3,3v3.3C324.3,146.1,323,147.5,321.3,147.5z"></path> <path class="st2" d="M314.4,158.9h-3.1c0,0-0.1,0-0.1,0.1v3.1c0,0,0,0.1,0.1,0.1h3.1c0,0,0.1,0,0.1-0.1L314.4,158.9 C314.5,159,314.5,158.9,314.4,158.9z"></path> <path class="st5" d="M283.5,127.4h5.4c0.5,0,0.9-0.4,0.9-0.9c0-0.5-0.4-0.9-0.9-0.9h-5.4c-0.5,0-0.9,0.4-0.9,0.9 C282.6,127,283,127.4,283.5,127.4z"></path> <path class="st5" d="M292.5,127.4H312c0.5,0,0.9-0.4,0.9-0.9c0-0.5-0.4-0.9-0.9-0.9h-19.6c-0.5,0-0.9,0.4-0.9,0.9 C291.6,127,292,127.4,292.5,127.4z"></path> <path class="st5" d="M283.5,133.5h5.4c0.5,0,0.9-0.4,0.9-0.9c0-0.5-0.4-0.9-0.9-0.9h-5.4c-0.5,0-0.9,0.4-0.9,0.9 C282.6,133.1,283,133.5,283.5,133.5z"></path> <path class="st5" d="M292.5,133.5H312c0.5,0,0.9-0.4,0.9-0.9c0-0.5-0.4-0.9-0.9-0.9h-19.6c-0.5,0-0.9,0.4-0.9,0.9 C291.6,133.1,292,133.5,292.5,133.5z"></path> <path class="st5" d="M283.5,139.6h5.4c0.5,0,0.9-0.4,0.9-0.9c0-0.5-0.4-0.9-0.9-0.9h-5.4c-0.5,0-0.9,0.4-0.9,0.9 C282.6,139.2,283,139.6,283.5,139.6z"></path> <path class="st5" d="M293.6,143.9h-10.1c-0.5,0-0.9,0.4-0.9,0.9c0,0.5,0.4,0.9,0.9,0.9h10.1c0.5,0,0.9-0.4,0.9-0.9 C294.5,144.3,294.1,143.9,293.6,143.9z"></path> <path class="st5" d="M293.6,156h-10.1c-0.5,0-0.9,0.4-0.9,0.9s0.4,0.9,0.9,0.9h10.1c0.5,0,0.9-0.4,0.9-0.9S294.1,156,293.6,156z"></path> <path class="st5" d="M293.6,150h-10.1c-0.5,0-0.9,0.4-0.9,0.9s0.4,0.9,0.9,0.9h10.1c0.5,0,0.9-0.4,0.9-0.9S294.1,150,293.6,150z"></path> <path class="st5" d="M325.1,135.4v0.5c1.3,0.6,2.2,2,2.2,3.5v22.8c0,1.5-0.9,2.9-2.2,3.5v0.9c2.2-1.3,3.7-3.7,3.7-6.4v-18.5 C328.8,139.1,327.3,136.7,325.1,135.4z"></path> <path class="st5" d="M323.4,166.2h-21.2c-2.2,0-3.9-1.8-3.9-3.9v-22.8c0-2.2,1.8-3.9,3.9-3.9h21.2c0.6,0,1.2,0.2,1.7,0.4v-0.5 c-1.1-0.6-2.4-1-3.8-1h-4.1v-11.6c2.8-0.5,4.9-2.9,4.9-5.9v-4c0-3.1-2.5-5.8-5.8-5.8h-32.7c-3.3,0-5.9,2.7-5.9,5.9V152h-5.1 c-2.6,0-4.7,2.1-4.7,4.7v5.4c0,3.2,2.6,5.9,6,5.8c0.1,0,46.5,0,47.4,0c1.4,0,2.7-0.4,3.8-1v-0.9C324.6,166,324,166.2,323.4,166.2z M316.4,108.9c2.2,0,4,1.8,4,4v4c0,1.9-1.3,3.6-3.1,4c-0.3,0.1-0.7,0.1-1.1,0.1h-22.6c-2.3,0-4.2-1.9-4.2-4.2v-4 c0-1.5-0.6-2.9-1.6-4C287.8,108.9,316.4,108.9,316.4,108.9z M273.7,166c-2.2,0-4-1.8-4-4v-5.4c0-1.6,1.3-2.9,2.9-2.9h5.1v0 c0,0.2,0,1.4,0,8.2C277.8,164.1,276.1,166,273.7,166z M278,166c1-1,1.6-2.5,1.6-4c0-3.8,0-48.1,0-48.9c0-2.3,1.9-4.2,4.2-4.2 c0.2,0,3.9,0.4,3.9,4v4c0,3.3,2.7,6,6,6h21.9v11.5h-11.1c-2.6,0-4.9,1.3-6.2,3.4h-5.7c-0.5,0-0.9,0.4-0.9,0.9 c0,0.5,0.4,0.9,0.9,0.9h4.9c-0.2,0.7-0.4,1.5-0.4,2.3v18.5c0,2.3,1,4.3,2.6,5.6H278z"></path> <path class="st5" d="M327,141.8v18.5c0,1.7-0.7,3.2-1.9,4.2v1.3c1.3-0.6,2.2-2,2.2-3.5v-22.8c0-1.5-0.9-2.9-2.2-3.5v1.7 C326.3,138.6,327,140.1,327,141.8z"></path> <path class="st5" d="M302.2,135.5c-2.2,0-3.9,1.8-3.9,3.9v22.8c0,2.2,1.8,3.9,3.9,3.9h21.2c0.6,0,1.2-0.2,1.7-0.4v-1.3 c-1,0.9-2.3,1.4-3.8,1.4h-17c-3.1,0-5.6-2.5-5.6-5.6v-18.5c0-1.5,0.6-3,1.7-4c1-1,2.4-1.6,3.9-1.6h17c1.4,0,2.8,0.5,3.8,1.4v-1.7 c-0.5-0.3-1.1-0.4-1.7-0.4H302.2z"></path> <path class="st5" d="M315.5,149.9c-0.8-0.5-1.3-0.2-4.1-0.3c-1,0-1.9,0.8-1.9,1.9v3.1c0,1,0.8,1.9,1.9,1.9h3.1 c0.4,0,0.8-0.1,1.1-0.3c0.5-0.3,0.8-0.9,0.8-1.5v-3.1C316.3,150.8,316,150.2,315.5,149.9z M314.5,154.5 C314.5,154.5,314.5,154.5,314.5,154.5l-3.1,0.1c0,0-0.1,0-0.1-0.1v-3.1c0,0,0-0.1,0.1-0.1h3.1c0,0,0.1,0,0.1,0.1V154.5z"></path> <path class="st5" d="M321.3,138.2h-16.9c-1,0-2,0.5-2.5,1.4c-0.3,0.5-0.5,1-0.5,1.6v3.3c0,1.7,1.3,3,3,3h16.9c1.7,0,3-1.3,3-3v-3.3 C324.3,139.5,323,138.2,321.3,138.2z M322.5,144.5c0,0.7-0.5,1.2-1.2,1.2h-16.9c-0.7,0-1.2-0.5-1.2-1.2v-3.3c0-0.7,0.5-1.2,1.2-1.2 h16.9c0.7,0,1.2,0.5,1.2,1.2V144.5z"></path> <path class="st5" d="M306.4,149.5h-3.1c-1,0-1.9,0.8-1.9,1.9v3.1c0,1,0.8,1.9,1.9,1.9h3.1c1,0,1.9-0.8,1.9-1.9v-3.1 C308.3,150.4,307.4,149.5,306.4,149.5z M306.5,154.5C306.5,154.5,306.4,154.5,306.5,154.5l-3.1,0.1c0,0-0.1,0-0.1-0.1v-3.1 c0,0,0-0.1,0.1-0.1h3.1c0,0,0.1,0,0.1,0.1V154.5z"></path> <path class="st5" d="M315.5,157.5c-0.3-0.2-0.7-0.3-1.1-0.3h-3.1c-1,0-1.9,0.8-1.9,1.9v3.1c0,1,0.8,1.9,1.9,1.9h3.1 c0.1,0,0.2,0,0.3,0c0.9-0.1,1.6-0.9,1.6-1.8V159C316.3,158.4,316,157.8,315.5,157.5z M314.5,162.1 C314.5,162.1,314.5,162.1,314.5,162.1l-3.1,0.1c0,0-0.1,0-0.1-0.1V159c0,0,0-0.1,0.1-0.1h3.1c0,0,0.1,0,0.1,0.1V162.1z"></path> <path class="st5" d="M306.4,157.1h-3.1c-1,0-1.9,0.8-1.9,1.9v3.1c0,1,0.8,1.9,1.9,1.9h3.1c1,0,1.9-0.8,1.9-1.9V159 C308.3,158,307.4,157.1,306.4,157.1z M306.5,162.1C306.5,162.1,306.4,162.1,306.5,162.1l-3.1,0.1c0,0-0.1,0-0.1-0.1V159 c0,0,0-0.1,0.1-0.1h3.1c0,0,0.1,0,0.1,0.1V162.1z"></path> <path class="st5" d="M322,149.5h-2.1c-1.3,0-2.3,1.1-2.3,2.3v9.5c0,1.4,1.1,2.6,2.6,2.6h1.7c1.4,0,2.6-1.1,2.6-2.6v-9.5 C324.3,150.6,323.3,149.5,322,149.5z M322.5,161.4c0,0.4-0.3,0.8-0.8,0.8h-1.7c-0.4,0-0.8-0.3-0.8-0.8v-9.5c0-0.3,0.3-0.6,0.6-0.6 h2.1c0.3,0,0.6,0.3,0.6,0.6V161.4z"></path> </g> <g> <g> <g> <circle class="st3" cx="290" cy="36.3" r="7.1"></circle> <circle class="st8" cx="318.4" cy="49.8" r="6.4"></circle> <circle class="st10" cx="261.5" cy="62.7" r="6"></circle> <g> <g> <path class="st5" d="M341.9,27l-4-14.1c-0.4-1.3-1.8-1.9-3-1.3l-14.5,7.7c-1,0.5-1.4,1.8-0.9,2.9c0.5,1,1.8,1.4,2.9,0.9 l9.3-4.9l-11,22.9c-3.8-1.1-8,0.3-10.3,3.7l-12.1-6.6c1.3-5.7-3.1-11.3-9.1-11.3c-7.1,0-11.6,7.7-8.1,13.9l-14.6,14.4 c-6.1-4-14.4,0.3-14.4,7.8c0,5.1,4.2,9.3,9.3,9.3c5.1,0,9.3-4.2,9.3-9.3c0-1.7-0.5-3.3-1.3-4.7L284,43.8 c4,2.7,9.4,1.9,12.4-1.9l12.4,6.8c-0.7,5.6,3.6,10.5,9.2,10.5c5.1,0,9.3-4.2,9.3-9.3c0-2.7-1.2-5.1-3-6.8l11.2-23.2l2.3,8.2 c0.3,1.1,1.5,1.8,2.6,1.5C341.6,29.2,342.2,28.1,341.9,27L341.9,27z M261.4,67.9c-2.8,0-5.1-2.3-5.1-5.1c0-3.6,3.7-6.1,7-4.7 c1.9,0.8,3.1,2.6,3.1,4.7C266.4,65.6,264.2,67.9,261.4,67.9L261.4,67.9z M292.6,39.8c-0.9,0.8-3.7,1.7-5.5,0.9 c-1.8-0.8-3-2.6-3-4.6c0-2.8,2.3-5.1,5.1-5.1c2.7,0,4.9,2.1,5.1,4.8C294.3,37.4,293.6,38.8,292.6,39.8L292.6,39.8z M318,55 c-2.8,0-5.1-2.3-5.1-5.1c0-2.8,2.3-5.1,5.1-5.1c1.8,0,3.4,0.9,4.3,2.4c0.5,0.8,0.8,1.7,0.8,2.7C323,52.7,320.8,55,318,55 L318,55z M318,55"></path> </g> </g> </g> <path class="st6" d="M303.1,58.2c0.4,8.8,7.5,15.8,16.2,16.2c10,0.5,18.2-7.8,17.7-17.7c-0.4-9.3-8.3-16.6-17.7-16.2 C310,40.9,302.7,48.9,303.1,58.2z M309.1,49.2c0.6,0.4,0.8,1.2,0.4,1.8c-5.7,9.2,2.5,21,13.3,18.5c5.7-1.3,9.6-6.2,9.6-12 c0-10.3-11.7-15.9-19.7-10c-0.6,0.4-1.4,0.3-1.8-0.3c-0.4-0.6-0.3-1.4,0.3-1.8c5.4-4,12.8-3.9,18.2,0.3c10,7.9,6.2,23.7-6,26.4 c-12.9,2.9-23-11.2-16.1-22.5C307.6,49,308.5,48.8,309.1,49.2z M315.2,53.3c0-2.3,1.2-3.9,3.5-4.5v-1.1c0-0.7,0.6-1.3,1.3-1.3 c0.7,0,1.3,0.6,1.3,1.3v1c1,0.1,3.5,0.5,3.5,1.9c0,0.6-0.4,1.4-1.2,1.4c-0.3,0-0.5-0.1-0.8-0.3c-1.6-0.8-3.3-0.7-4.2-0.2 c-0.6,0.3-0.9,0.9-0.9,1.7c0,1.4,1,1.9,2.8,2.5l0.3,0.1v0c2,0.7,4.3,1.8,4.3,5.4c0,2.8-1.4,4.6-3.9,5.1v1c0,0.7-0.6,1.3-1.3,1.3 c-0.7,0-1.3-0.6-1.3-1.3v-0.9c-2.4-0.4-3.9-1.8-3.9-2.9c0-0.6,0.6-1.4,1.2-1.4c1.1,0,1.1,1.9,3.9,1.9c1.3,0,2.8-0.4,2.8-2.5 C322.7,57,315.2,59.2,315.2,53.3z"></path> <path class="st6" d="M308.5,41.7c-1.5,0.6-2.9,1.3-4.1,2.3h1.5C306.7,43.1,307.5,42.3,308.5,41.7z"></path> <path class="st2" d="M313.8,37.9c0,0,5.2,0,5.3,0c10.1-0.8,20.1,7.5,20.6,18.7c0.5,10.8-8,20-18.8,20.4c-0.7,0-1.4,0-5.5,0 c-10.8,0.4-19.9-8-20.4-18.8C294.6,47.5,303,38.4,313.8,37.9z"></path> <path class="st2" d="M303.7,46.6h-2.2c-0.9,1.1-1.7,2.2-2.3,3.5h2.6C302.4,48.9,303,47.7,303.7,46.6z"></path> <path class="st2" d="M300.5,58.8h-2.8c0.1,1.2,0.3,2.4,0.6,3.5h2.7C300.8,61.2,300.6,60,300.5,58.8z"></path> <path class="st2" d="M301,52.7h-2.7c-0.3,1.1-0.5,2.3-0.6,3.5h2.8C300.5,55.8,300.6,54.5,301,52.7z"></path> <path class="st5" d="M315.4,77.1c4,0,4.7,0,5.5,0c10.8-0.5,19.2-9.6,18.8-20.4c-0.5-11.3-10.4-19.5-20.6-18.7c-0.1,0-5.3,0-5.3,0 c-10.8,0.5-19.2,9.6-18.8,20.4C295.5,69.1,304.6,77.5,315.4,77.1z M297.7,58.8h2.8c0.1,1.2,0.3,2.4,0.6,3.5h-2.7 C298,61.2,297.8,60,297.7,58.8z M301.7,68.4c-0.9-1.1-1.7-2.2-2.3-3.5h2.5c0.1,0.3,0.7,1.7,1.9,3.5H301.7z M308.5,73.3 C308.5,73.3,308.5,73.3,308.5,73.3c-1.4-0.6-2.8-1.3-4.1-2.3h1.5C306.2,71.3,307,72.3,308.5,73.3 C308.5,73.3,308.5,73.3,308.5,73.3C308.5,73.3,308.5,73.3,308.5,73.3z M319.3,40.5c9.4-0.4,17.3,6.9,17.7,16.2 c0.4,9.9-7.8,18.1-17.7,17.7c-8.7-0.4-15.8-7.4-16.2-16.2C302.7,48.9,310,40.9,319.3,40.5z M308.5,41.7c-1,0.7-1.8,1.5-2.6,2.3 h-1.5C305.6,43,307,42.2,308.5,41.7z M301.6,46.6h2.2c-0.7,1.1-1.4,2.3-1.9,3.5h-2.6C299.9,48.9,300.7,47.7,301.6,46.6z M298.3,52.7h2.7c-0.5,1.8-0.5,3-0.5,3.5h-2.8C297.8,55,298,53.9,298.3,52.7z"></path> <path class="st5" d="M307.3,49.6c-6.9,11.3,3.2,25.4,16.1,22.5c12.1-2.8,16-18.5,6-26.4c-5.4-4.2-12.8-4.3-18.2-0.3 c-0.6,0.4-0.7,1.3-0.3,1.8c0.4,0.6,1.3,0.7,1.8,0.3c8.1-5.9,19.7-0.3,19.7,10c0,5.8-4,10.8-9.6,12C312,72,303.9,60.2,309.5,51 c0.4-0.6,0.2-1.4-0.4-1.8C308.5,48.8,307.6,49,307.3,49.6z"></path> <path class="st5" d="M319.9,63.9c-2.8,0-2.8-1.9-3.9-1.9c-0.7,0-1.2,0.8-1.2,1.4c0,1.1,1.6,2.5,3.9,2.9v0.9c0,0.7,0.6,1.3,1.3,1.3 c0.7,0,1.3-0.6,1.3-1.3v-1c2.5-0.5,3.9-2.3,3.9-5.1c0-3.6-2.3-4.7-4.3-5.4v0l-0.3-0.1c-1.9-0.7-2.8-1.1-2.8-2.5 c0-0.8,0.3-1.3,0.9-1.7c0.9-0.5,2.6-0.6,4.2,0.2c0.3,0.2,0.5,0.3,0.8,0.3c0.8,0,1.2-0.8,1.2-1.4c0-1.4-2.5-1.8-3.5-1.9v-1 c0-0.7-0.6-1.3-1.3-1.3c-0.7,0-1.3,0.6-1.3,1.3v1.1c-2.3,0.6-3.5,2.1-3.5,4.5c0,5.9,7.5,3.7,7.5,8.1 C322.7,63.5,321.2,63.9,319.9,63.9z"></path> </g> </g> <g> <path class="st3" d="M39.1,121.5l10.4,10.4l4.7-2.9l7.7,1.3l1.8-16.6c0,0-3-1.9-8.7-1.2c-5.4,1.7-11.4,4.3-11.4,4.3L39.1,121.5z"></path> <path class="st2" d="M68,169.6c0,0-7.1,2-9,1.2c0.5-5.1,0-18.2,0-18.2l7.9-3.4l13.6,14l-7.6,4.7L68,169.6z"></path> <path class="st10" d="M69.5,151.7l11.1,11.4l5.1-8.9l2.7-9.5c0,0,0.3-5.8-0.5-7.4c-8.1,1.8-19.2,1.5-19.2,1.5L69.5,151.7z"></path> <path class="st8" d="M31.8,131.3c0,0-2.1,7.7-2,10.7c2.1,0.2,18.2,0.7,18.2,0.7l2.3-7.8l-0.9-3l-10.4-10.4L33,128L31.8,131.3z"></path> <circle class="st6" cx="59.7" cy="142" r="13.8"></circle> <path class="st1" d="M75.3,112.8c0,0,9.4,5.3,14.1,14.3c1.1,3.1,2.8,9.3,2.8,9.3l-18.9,3.5l-3.7-7.2l-5.4-3.6l-3-1l2.3-17.2 l1.2-1.9L75.3,112.8z"></path> <path class="st1" d="M41.1,142h2.8h2.1l0.4,1.6l1,4.5l5.2,5.5l7.2,2v19.7l-10.2-1.9l-9.7-5.2c0,0-4.9-2.3-8.4-9.2 S26,143.7,26,143.7l1.3-0.9"></path> <g> <g> <path class="st5" d="M59.3,154.5c-3.4,0-6.5-1.3-8.9-3.7c-2.4-2.4-3.7-5.6-3.7-9c0-0.5-0.4-1-1-1H27c-0.4,0-0.9,0.2-1.2,0.5 c-0.3,0.3-0.5,0.7-0.5,1.2c0.2,8.4,3.4,16.5,9.1,22.6c0.4,0.4,1,0.4,1.4,0c0.4-0.4,0.4-1,0.1-1.4c-5.3-5.7-8.4-13.1-8.6-21h17.4 c0.2,3.5,1.7,6.8,4.2,9.4c2.5,2.5,5.8,4,9.3,4.3v17.5c-7.4-0.2-14.5-3-20-7.9c-0.4-0.4-1-0.3-1.4,0.1c-0.4,0.4-0.3,1,0.1,1.4 c6,5.3,13.7,8.2,21.7,8.4c0,0,0,0,0,0c0.4,0,0.8-0.2,1.1-0.5c0.3-0.3,0.5-0.7,0.5-1.2v-18.8C60.3,154.9,59.9,154.5,59.3,154.5 L59.3,154.5z M59.3,154.5"></path> </g> <path class="st5" d="M55.9,142.7c-0.5,0-1,0.4-1,1c0,0.5,0.4,1,1,1h6.7c0.5,0,1-0.4,1-1c0-0.5-0.4-1-1-1H55.9z M55.9,142.7"></path> <path class="st5" d="M66.1,139.8c0-0.5-0.4-1-1-1H53.5c-0.5,0-1,0.4-1,1c0,0.5,0.4,1,1,1h11.6C65.6,140.8,66.1,140.4,66.1,139.8 L66.1,139.8z M66.1,139.8"></path> <path class="st5" d="M45.3,155.2c0-0.5-0.4-1-1-1h-6.4c-0.5,0-1,0.4-1,1c0,0.5,0.4,1,1,1h6.4C44.9,156.2,45.3,155.8,45.3,155.2 L45.3,155.2z M45.3,155.2"></path> <path class="st5" d="M30.3,139.4c0,0,0.1,0,0.1,0c0.5,0,0.9-0.4,1-0.9c0.7-6.1,3.2-11.6,7.4-16l9.5,9.6c-1.5,1.7-2.6,3.7-3.1,5.9 c-0.1,0.5,0.2,1.1,0.7,1.2c0.1,0,0.2,0,0.3,0c0.4,0,0.8-0.3,1-0.7c0.6-2.2,1.7-4.1,3.3-5.7c2-2,4.6-3.3,7.5-3.6 c0.5-0.1,0.9-0.6,0.9-1.1c-0.1-0.5-0.6-0.9-1.1-0.9c-3,0.3-5.7,1.6-7.9,3.5l-9.5-9.6c5.4-5,12.3-7.7,19.7-7.6c0.5,0,1-0.4,1-1 c0-0.5-0.4-1-1-1c-4-0.1-7.9,0.6-11.7,2.1c-3.8,1.5-7.3,3.8-10.2,6.8c0,0,0,0,0,0c0,0,0,0,0,0c0,0,0,0,0,0 c-4.9,4.9-7.8,11.1-8.6,17.9C29.4,138.9,29.8,139.4,30.3,139.4L30.3,139.4z M30.3,139.4"></path> <path class="st5" d="M88.4,139.9C88.4,139.9,88.4,139.9,88.4,139.9c-0.6,0-1,0.5-1,1c0.2,7.5-2.4,14.6-7.5,20.1l-9.5-9.6 c1.9-2.2,3.1-4.8,3.5-7.7c0.1-0.5-0.3-1-0.9-1.1c-0.5-0.1-1,0.3-1.1,0.9c-0.4,2.8-1.6,5.3-3.6,7.3c-1.7,1.7-3.8,2.9-6.2,3.4 c-0.5,0.1-0.9,0.7-0.8,1.2c0.1,0.5,0.5,0.8,1,0.8c0.1,0,0.1,0,0.2,0c2.4-0.5,4.6-1.7,6.4-3.3l9.5,9.6c-4.2,4-9.5,6.5-15.2,7.3 c-0.5,0.1-0.9,0.6-0.8,1.1c0.1,0.5,0.5,0.9,1,0.9c0,0,0.1,0,0.1,0c6.5-0.9,12.4-3.9,17-8.5l0,0l0,0c0,0,0,0,0,0 c3-3,5.3-6.5,6.8-10.4c1.5-3.8,2.1-7.8,2-11.9C89.4,140.3,88.9,139.9,88.4,139.9L88.4,139.9z M88.4,139.9"></path> <path class="st5" d="M37.9,158.1c-0.5,0-1,0.4-1,1c0,0.5,0.4,1,1,1h3.9c0.5,0,1-0.4,1-1c0-0.5-0.4-1-1-1H37.9z M37.9,158.1"></path> <path class="st5" d="M80.4,123.2H74c-0.5,0-1,0.4-1,1c0,0.5,0.4,1,1,1h6.4c0.5,0,1-0.4,1-1C81.4,123.6,81,123.2,80.4,123.2 L80.4,123.2z M80.4,123.2"></path> <path class="st5" d="M80.4,127h-3.9c-0.5,0-1,0.4-1,1c0,0.5,0.4,1,1,1h3.9c0.5,0,1-0.4,1-1C81.4,127.5,81,127,80.4,127L80.4,127z M80.4,127"></path> <path class="st5" d="M93.2,136.3c-1-6.2-3.6-12-7.7-16.7c-0.4-0.4-1-0.5-1.4-0.1c-0.4,0.4-0.5,1-0.1,1.4c3.7,4.4,6.2,9.7,7.2,15.4 l-17.6,2.5c-0.6-2.8-1.9-5.3-4-7.4c-2-2-4.4-3.3-7.1-3.9l2.3-17.4c6.3,1,12,3.9,16.7,8.2c0.4,0.4,1,0.4,1.4,0c0.4-0.4,0.4-1,0-1.4 c-5-4.7-11.3-7.8-18.1-8.8c-0.4-0.1-0.9,0-1.2,0.3c-0.4,0.3-0.6,0.7-0.6,1.1l-2.5,18.7c-0.1,0.5,0.3,1,0.8,1.1 c2.7,0.4,5.1,1.6,7,3.6c2,2,3.2,4.5,3.6,7.2c0,0.3,0.2,0.5,0.4,0.7c0.2,0.1,0.4,0.2,0.6,0.2c0,0,0.1,0,0.1,0l18.9-2.7 c0.4-0.1,0.8-0.3,1.1-0.6C93.2,137.2,93.3,136.8,93.2,136.3L93.2,136.3z M93.2,136.3"></path> </g> </g> <line class="st0" x1="233" y1="147.5" x2="279.8" y2="139.4"></line> <line class="st0" x1="209.2" y1="114.6" x2="294.2" y2="69.3"></line> <line class="st0" x1="152.9" y1="114.6" x2="95.8" y2="66.7"></line> <line class="st0" x1="134.4" y1="155.8" x2="89.4" y2="146.7"></line> <g> <g> <path class="st11" d="M179.5,112.5c4.9,0.1,9.5-1.6,13-5.1c3.5-3.4,5.4-8,5.4-12.9V76.8c0-1.7-1.4-3.1-3.1-3.1h-29.6 c-1.7,0-3.1,1.4-3.1,3.1v16.9C162.1,103.8,169.9,112.2,179.5,112.5z"></path> <path class="st11" d="M180.1,118.1c-0.2,0-0.5,0-0.7,0c-4.1-0.1-8-1.4-11.3-3.5v3.7c0,1.5-1.2,2.8-2.8,2.8c0,0-0.1,0-0.1,0 c0.7,6.8,7.1,12.2,14.9,12.2c7.8,0,14.2-5.4,14.9-12.2c0,0-0.1,0-0.1,0c-1.5,0-2.8-1.2-2.8-2.8v-3.5 C188.5,116.9,184.4,118.1,180.1,118.1z"></path> <path class="st7" d="M194.9,68.1c4.8,0,8.7,3.9,8.7,8.7v4.4c0.2-0.4,0.4-0.9,0.4-1.5V65c0-6.6-5.4-12-12-12h-23.7 c-1.7,0-3.1,1.4-3.1,3.1c0,1.5-1.2,2.8-2.8,2.8c-3.4,0-6.1,2.7-6.1,6.1v14.8c0,0.5,0.1,1,0.4,1.5v-4.4c0-4.8,3.9-8.7,8.7-8.7 H194.9z"></path> <path class="st6" d="M215.6,147.7h-71c-0.1,0-0.2,0.1-0.2,0.2v38.5c0,0.1,0.1,0.2,0.2,0.2h71c0.1,0,0.2-0.1,0.2-0.2v-38.5 C215.8,147.8,215.7,147.7,215.6,147.7z M180.1,177.3c-4.8,0-8.7-3.9-8.7-8.7s3.9-8.7,8.7-8.7c4.8,0,8.7,3.9,8.7,8.7 S184.9,177.3,180.1,177.3z"></path> <path class="st2" d="M223,134.5c-0.6-3.2-2.9-5.9-6-6.9l-16.6-5.5c-1.2,9.4-9.9,16.7-20.4,16.7c-10.5,0-19.1-7.3-20.4-16.7 l-16.6,5.5c-3.1,1-5.4,3.7-6,6.9l-7.9,41.3c-0.5,2.7,0.2,5.4,1.9,7.5c1.7,2.1,4.3,3.3,7,3.3h0.7c0-0.1,0-0.1,0-0.2v-38.5 c0-3.2,2.6-5.7,5.7-5.7h71c3.2,0,5.7,2.6,5.7,5.7v38.5c0,0.1,0,0.1,0,0.2h0.2h0.5c2.7,0,5.3-1.2,7-3.3c1.7-2.1,2.4-4.8,1.9-7.5 L223,134.5z"></path> <path class="st8" d="M180.1,165.5c-1.7,0-3.1,1.4-3.1,3.1c0,1.7,1.4,3.1,3.1,3.1c1.7,0,3.1-1.4,3.1-3.1 C183.2,166.9,181.8,165.5,180.1,165.5z"></path> <path class="st5" d="M251.7,186.5h-18.3c2.6-3.3,3.7-7.6,2.9-11.8l-7.9-41.3c-1-5.2-4.7-9.5-9.7-11.1l-20.1-6.7 c-0.4-0.1-0.7-0.2-1.1-0.1v-5.3c3.8-4.3,5.9-9.8,5.9-15.6V88c3.4-1.2,5.9-4.4,5.9-8.2V65c0-9.7-7.9-17.6-17.6-17.6h-23.7 c-3.9,0-7.2,2.6-8.3,6.2c-5.3,1.1-9.3,5.8-9.3,11.4v14.8c0,3.8,2.5,7.1,5.9,8.2v5.7c0,6.1,2.2,11.8,5.9,16.1v5.7 c-0.3,0-0.7,0-1.1,0.1l-20.1,6.7c-5,1.7-8.7,5.9-9.7,11.1l-7.9,41.3c-0.8,4.2,0.3,8.5,2.9,11.8h-18.3c-1.5,0-2.8,1.2-2.8,2.8 c0,1.5,1.2,2.8,2.8,2.8h143.4c1.5,0,2.8-1.2,2.8-2.8C254.5,187.8,253.3,186.5,251.7,186.5z M156.6,76.8v4.4 c-0.2-0.4-0.4-0.9-0.4-1.5V65c0-3.4,2.7-6.1,6.1-6.1c1.5,0,2.8-1.2,2.8-2.8c0-1.7,1.4-3.1,3.1-3.1h23.7c6.6,0,12,5.4,12,12v14.8 c0,0.5-0.1,1-0.4,1.5v-4.4c0-4.8-3.9-8.7-8.7-8.7h-29.6C160.5,68.1,156.6,72,156.6,76.8z M162.1,93.7V76.8c0-1.7,1.4-3.1,3.1-3.1 h29.6c1.7,0,3.1,1.4,3.1,3.1v17.8c0,4.9-1.9,9.5-5.4,12.9c-3.5,3.4-8.2,5.2-13,5.1C169.9,112.2,162.1,103.8,162.1,93.7z M194.9,121.1c0,0,0.1,0,0.1,0c-0.7,6.8-7.1,12.2-14.9,12.2c-7.8,0-14.2-5.4-14.9-12.2c0,0,0.1,0,0.1,0c1.5,0,2.8-1.2,2.8-2.8 v-3.7c3.3,2.1,7.2,3.3,11.3,3.5c0.2,0,0.5,0,0.7,0c4.3,0,8.4-1.1,12-3.3v3.5C192.1,119.8,193.3,121.1,194.9,121.1z M215.8,186.4 c0,0.1-0.1,0.2-0.2,0.2h-71c-0.1,0-0.2-0.1-0.2-0.2v-38.5c0-0.1,0.1-0.2,0.2-0.2h71c0.1,0,0.2,0.1,0.2,0.2V186.4z M229,183.3 c-1.7,2.1-4.3,3.3-7,3.3h-0.5h-0.2c0-0.1,0-0.1,0-0.2v-38.5c0-3.2-2.6-5.7-5.7-5.7h-71c-3.2,0-5.7,2.6-5.7,5.7v38.5 c0,0.1,0,0.1,0,0.2h-0.7c-2.7,0-5.3-1.2-7-3.3c-1.7-2.1-2.4-4.8-1.9-7.5l7.9-41.3c0.6-3.2,2.9-5.9,6-6.9l16.6-5.5 c1.2,9.4,9.9,16.7,20.4,16.7c10.5,0,19.1-7.3,20.4-16.7l16.6,5.5c3.1,1,5.4,3.7,6,6.9l7.9,41.3C231.4,178.4,230.7,181.2,229,183.3 z"></path> <path class="st5" d="M180.1,159.9c-4.8,0-8.7,3.9-8.7,8.7s3.9,8.7,8.7,8.7c4.8,0,8.7-3.9,8.7-8.7S184.9,159.9,180.1,159.9z M180.1,171.7c-1.7,0-3.1-1.4-3.1-3.1c0-1.7,1.4-3.1,3.1-3.1c1.7,0,3.1,1.4,3.1,3.1C183.2,170.3,181.8,171.7,180.1,171.7z"></path> </g> </g> </svg> 